HIERARCHY
ROOT Hips
{
     OFFSET 1.88212 96.90440 -13.34250
     CHANNELS 6 Xposition Yposition Zposition Zrotation Xrotation Yrotation
     JOINT Spine
     {
          OFFSET 0.00000 11.89050 0.00000
          CHANNELS 3 Zrotation Xrotation Yrotation
          JOINT Spine1
          {
               OFFSET -0.00000 25.65740 0.12766
               CHANNELS 3 Zrotation Xrotation Yrotation
               JOINT HEad
               {
                    OFFSET 0.00000 8.73416 0.01134
                    CHANNELS 3 Zrotation Xrotation Yrotation
                    End Site
                    {
                         OFFSET -0.29000 12.77420 2.51395
                    }
               }
               JOINT LeftShoulder1
               {
                    OFFSET 8.99000 -0.36225 -0.22000
                    CHANNELS 3 Zrotation Xrotation Yrotation
                    JOINT LeftArm
                    {
                         OFFSET 10.28270 -0.00338 0.32212
                         CHANNELS 3 Zrotation Xrotation Yrotation
                         JOINT LeftForeArm
                         {
                              OFFSET 32.76690 0.09914 -1.42434
                              CHANNELS 3 Zrotation Xrotation Yrotation
                              JOINT LeftHand
                              {
                                   OFFSET 27.56430 0.08536 1.02216
                                   CHANNELS 3 Zrotation Xrotation Yrotation
                                   End Site
                                   {
                                        OFFSET 16.74430 -0.60000 1.50291
                                   }
                              }
                         }
                    }
               }
               JOINT RightShoulder
               {
                    OFFSET -8.99000 -0.36225 -0.22000
                    CHANNELS 3 Zrotation Xrotation Yrotation
                    JOINT RightArm
                    {
                         OFFSET -10.28270 -0.00338 0.32212
                         CHANNELS 3 Zrotation Xrotation Yrotation
                         JOINT RightForeArm
                         {
                              OFFSET -32.89710 0.09914 -1.42434
                              CHANNELS 3 Zrotation Xrotation Yrotation
                              JOINT RightHand
                              {
                                   OFFSET -27.49210 0.08536 1.02216
                                   CHANNELS 3 Zrotation Xrotation Yrotation
                                   End Site
                                   {
                                        OFFSET -16.63120 -0.60000 1.50291
                                   }
                              }
                         }
                    }
               }
          }
     }
     JOINT LeftUpLeg
     {
          OFFSET 8.94580 -8.66707 0.10165
          CHANNELS 3 Zrotation Xrotation Yrotation
          JOINT LeftLeg
          {
               OFFSET 0.00000 -44.42270 1.37270
               CHANNELS 3 Zrotation Xrotation Yrotation
               JOINT LeftFoot
               {
                    OFFSET -0.25355 -42.09240 -1.46059
                    CHANNELS 3 Zrotation Xrotation Yrotation
                    JOINT LeftToes
                    {
                         OFFSET -0.04000 -4.41509 8.49910
                         CHANNELS 3 Zrotation Xrotation Yrotation
                         End Site
                         {
                              OFFSET 0.08000 -0.04745 9.77979
                         }
                    }
               }
          }
     }
     JOINT RightUpLeg
     {
          OFFSET -8.94580 -8.66707 0.10165
          CHANNELS 3 Zrotation Xrotation Yrotation
          JOINT RightLeg
          {
               OFFSET 0.00000 -44.42270 1.37270
               CHANNELS 3 Zrotation Xrotation Yrotation
               JOINT RightFoot
               {
                    OFFSET 0.25355 -42.09240 -1.46059
                    CHANNELS 3 Zrotation Xrotation Yrotation
                    JOINT RightToes
                    {
                         OFFSET 0.04000 -4.41509 8.49910
                         CHANNELS 3 Zrotation Xrotation Yrotation
                         End Site
                         {
                              OFFSET -0.08000 -0.13745 9.77979
                         }
                    }
               }
          }
     }
}
MOTION
Frames: 17
Frame Time: 0.01667
18.20592 93.79513 -72.06741 5.07386 -0.16754 7.58509 -3.91664 14.28842 5.20263 -0.00311 0.00573 0.00565 -41.72810 13.47246 40.25409 3.88038 6.89105 7.33329 -156.91833 -76.26601 -131.99628 -40.20559 46.13379 -94.14481 4.74809 11.81009 -0.35473 12.56519 9.62774 13.62573 51.74521 -13.34679 78.93394 23.37445 34.78083 99.40272 -6.00183 9.42931 1.44810 13.15267 -20.21399 13.37150 3.94406 18.34772 -22.70389 87.23502 -0.00416 -0.01902 -96.73978 1.99543 5.03613 -19.13505 -5.24310 14.14967 9.02733 24.34604 -1.85711 9.94944 -0.00858 0.00474 -20.25464 -29.29890 -18.15817 
16.22744 93.84328 -71.49092 4.40223 -0.61727 8.15300 -2.74938 14.53606 5.00887 -0.00356 0.00523 0.00406 -41.25404 13.77509 39.52276 3.13930 6.83421 7.26728 -155.55409 -75.52987 -130.67303 -40.43669 46.38979 -94.15070 4.66036 11.51118 -0.05240 12.10034 9.55019 13.28972 52.01868 -12.98838 79.34756 23.31169 34.80706 99.32004 -6.08764 9.21671 1.21910 15.45338 -19.47934 13.44357 2.42625 18.14553 -22.48536 83.84229 -0.00222 -0.02200 -92.10809 1.97124 5.13513 -18.42295 -4.80410 12.61573 10.20043 24.12045 0.24462 10.06894 -0.00618 0.00502 -23.03367 -29.53571 -19.32017 
14.33852 93.89719 -70.91709 3.78795 -1.13176 8.71266 -1.61793 14.78394 4.87335 -0.00397 0.00457 0.00274 -40.75433 14.10352 38.80963 2.48217 6.76397 7.12588 -154.35565 -75.09132 -129.30942 -40.71487 46.71529 -94.29729 4.52799 11.30919 0.19311 11.74683 9.45670 12.87709 52.25396 -12.43908 79.50724 23.18366 34.87506 99.28394 -6.19906 9.04558 0.92280 17.65392 -18.69276 13.43440 0.81627 17.97053 -22.13172 79.97869 0.00002 -0.02650 -87.10263 2.17744 5.39603 -17.72826 -4.40541 11.04604 11.42191 24.36043 1.84506 10.18829 -0.00462 0.00474 -25.56721 -30.06579 -20.02103 
12.55643 93.95923 -70.34757 3.24883 -1.68940 9.25835 -0.54053 15.01075 4.78508 -0.00446 0.00394 0.00167 -40.25120 14.47244 38.13356 1.91672 6.66871 6.91997 -153.14304 -74.95169 -127.80706 -41.00679 47.06346 -94.55375 4.39338 11.20476 0.38755 11.47401 9.32886 12.40644 52.44617 -11.73302 79.39378 23.01009 34.94347 99.27568 -6.27930 8.96118 0.62062 19.72321 -17.85128 13.33717 -0.85366 17.74141 -21.59121 75.60995 0.00513 -0.03335 -82.06393 2.62247 5.87722 -17.07119 -4.02599 9.46919 12.58992 24.94077 3.02026 10.36940 -0.00354 0.00423 -27.75723 -30.58670 -20.40560 
10.88079 94.03123 -69.77431 2.78992 -2.26799 9.78957 0.47345 15.19589 4.73222 -0.00498 0.00353 0.00083 -39.75972 14.89517 37.50838 1.44968 6.55469 6.65623 -151.83128 -75.07387 -126.16282 -41.27613 47.38401 -94.87505 4.26777 11.19388 0.53620 11.26274 9.16878 11.89799 52.58049 -10.93112 79.03922 22.80820 34.97851 99.26961 -6.28984 8.98238 0.32456 21.46987 -17.00218 13.09511 -2.06427 17.35045 -20.94417 70.32536 0.01523 -0.04452 -77.10836 3.13233 6.63290 -16.45787 -3.64949 7.91079 13.63134 25.73932 3.83802 10.65775 -0.00233 0.00384 -29.62823 -31.19325 -20.43964 
9.30118 94.11794 -69.18755 2.40636 -2.84784 10.30555 1.41969 15.32238 4.70722 -0.00542 0.00335 0.00021 -39.28763 15.37981 36.94369 1.09024 6.43059 6.34279 -150.38727 -75.40363 -124.41017 -41.49565 47.62861 -95.20980 4.18016 11.24817 0.63926 11.10603 8.98408 11.37367 52.63575 -10.10685 78.50574 22.59391 34.95756 99.24403 -6.21095 9.11669 0.08795 22.81820 -16.19713 12.70257 -2.72748 17.17469 -18.08595 64.23235 0.03927 -0.16830 -77.47620 6.39303 21.37510 -15.87972 -3.26410 6.39581 14.50299 26.64944 4.35829 11.07675 -0.00065 0.00357 -31.15739 -31.78483 -20.16508 
7.81891 94.22012 -68.58073 2.08836 -3.41239 10.80332 2.29730 15.37752 4.70712 -0.00567 0.00329 -0.00027 -38.83711 15.92727 36.44596 0.84746 6.30254 5.98996 -148.80043 -75.88292 -122.58556 -41.64905 47.75722 -95.50867 4.12231 11.34388 0.69765 10.99893 8.78119 10.85234 52.59839 -9.32884 77.86933 22.38357 34.87178 99.18521 -6.05658 9.33547 -0.08056 23.77503 -15.47307 12.18765 -3.11271 17.16964 -13.38357 57.55478 0.12024 -0.27915 -68.50019 5.35000 10.24661 -15.32486 -2.86062 4.94717 15.18480 27.58176 4.63854 11.63548 0.00140 0.00332 -32.37260 -32.35271 -19.61341 
6.44252 94.34163 -67.95481 1.82864 -3.94722 11.27900 3.10038 15.35314 4.73126 -0.00595 0.00331 -0.00074 -38.40646 16.53156 36.01951 0.69764 6.17735 5.60387 -147.07889 -76.45764 -120.74606 -41.72747 47.74532 -95.73293 4.11000 11.43307 0.73254 10.90878 8.56792 10.34204 52.48933 -8.64700 77.21267 22.19347 34.72689 99.08856 -5.83022 9.59700 -0.18860 24.39668 -14.85631 11.59372 -3.37218 17.37015 -7.14147 50.42069 0.22470 -0.35861 -63.00287 6.61366 8.30437 -14.78907 -2.43039 3.58361 15.66741 28.46074 4.73752 12.33769 0.00365 0.00294 -33.30817 -32.84348 -18.84962 
5.18252 94.48325 -67.32021 1.62241 -4.43792 11.73118 3.82006 15.24303 4.77712 -0.00631 0.00333 -0.00124 -37.99289 17.18223 35.66608 0.60896 6.05621 5.19178 -145.23090 -77.08459 -118.92793 -41.72669 47.58847 -95.86164 4.13006 11.50049 0.73466 10.80211 8.34786 9.84700 52.33880 -8.08940 76.60154 22.03905 34.53717 98.95452 -5.57727 9.86151 -0.24600 24.73757 -14.31218 10.95644 -3.37769 17.28844 -1.84812 42.62201 0.28846 -0.28332 -54.90791 7.08844 2.20312 -14.27596 -1.96937 2.31567 15.94434 29.22589 4.71472 13.18634 0.00590 0.00234 -34.02429 -33.23770 -17.92803 
4.04632 94.64315 -66.69280 1.46588 -4.87055 12.16069 4.44746 15.04313 4.84055 -0.00670 0.00332 -0.00171 -37.59370 17.86683 35.38371 0.55496 5.93849 4.76401 -143.28027 -77.72514 -117.15749 -41.64770 47.30153 -95.89001 4.18365 11.52548 0.70326 10.65500 8.12317 9.36809 52.18006 -7.66286 76.08356 21.93332 34.31973 98.78429 -5.33099 10.09554 -0.26247 24.84983 -13.79433 10.30187 -3.13660 17.01779 2.57066 34.24304 0.30174 -0.20180 -47.00140 8.28190 -0.47885 -13.79236 -1.48053 1.14640 16.01041 29.83180 4.62596 14.18250 0.00799 0.00144 -34.58379 -33.51788 -16.89799 
3.03392 94.81740 -66.08752 1.35517 -5.23404 12.56830 4.97595 14.75392 4.91780 -0.00704 0.00335 -0.00211 -37.20623 18.57199 35.16663 0.51964 5.82720 4.33224 -141.29602 -78.34115 -115.48421 -41.49661 46.91503 -95.82599 4.25629 11.50676 0.63141 10.45607 7.89915 8.90257 52.04739 -7.35794 75.69289 21.88548 34.09041 98.57815 -5.13219 10.27623 -0.24599 24.77877 -13.26543 9.64716 -2.68902 16.61183 6.18092 25.38476 0.28969 -0.12554 -38.08743 9.09617 -3.67584 -13.34286 -0.97209 0.07553 15.86572 30.24747 4.51663 15.32088 0.00970 0.00021 -35.03300 -33.67434 -15.78736 
2.14331 94.96212 -65.51731 1.26012 -5.58879 12.95579 5.49622 14.40792 4.98982 -0.00321 -0.00191 -0.00456 -36.84904 19.30404 35.00014 0.57916 5.77483 3.94736 -139.16571 -78.92121 -113.65693 -41.41545 46.43449 -95.65678 4.32050 11.47486 0.56202 9.86040 7.67417 7.94213 52.15751 -7.18923 75.64721 22.47963 33.53500 99.67435 -5.47754 9.53495 1.21051 24.66195 -12.62546 9.00213 -2.05108 16.03277 9.54254 16.11260 0.30083 -0.07238 -28.88667 9.98285 -6.49226 -12.85167 -0.38539 -0.95231 15.78250 30.54421 4.34970 16.35982 0.00992 0.00018 -35.48492 -33.77705 -14.69298 
1.36214 95.04961 -64.98730 1.18754 -5.92580 13.32460 5.99564 14.00073 5.04741 -0.00354 -0.00650 -0.00665 -36.51462 20.05650 34.88643 0.66616 5.77235 3.56790 -137.02336 -79.46213 -111.85049 -41.33724 45.90044 -95.41366 4.40022 11.44292 0.48656 8.91005 7.47266 6.43225 52.53168 -6.95434 76.07787 23.52894 32.92907 101.70031 -5.70396 8.61046 2.43149 24.51247 -11.87626 8.37361 -1.30626 15.30589 12.67099 6.59496 0.29823 -0.01232 -19.41883 10.96095 -8.98497 -12.34501 0.26300 -1.93951 15.64575 30.70138 4.18833 17.38071 0.00944 -0.00086 -35.90327 -33.79858 -13.56854 
0.67455 94.28915 -64.53719 1.22443 -6.90920 13.77080 6.82665 13.65256 4.60234 0.01037 -0.04041 -0.02741 -36.10498 21.21934 34.99531 2.06205 3.03343 1.57987 -125.96913 -82.86892 -100.93985 -40.78044 45.47065 -96.33612 3.38927 12.33379 -4.05344 10.59533 5.18362 3.99221 50.82578 -5.94079 74.39135 24.67401 32.24000 104.92435 -8.43375 12.00664 2.05237 24.23196 -11.01547 7.56493 -1.15483 15.59217 14.66390 -3.71585 0.21073 -0.04140 -9.41752 10.72247 -10.83586 -11.62485 1.24241 -2.76185 15.07639 31.01584 4.73229 18.74595 0.00044 -0.00349 -32.93439 -29.31086 -8.82826 
-0.04919 93.90234 -64.37199 1.40496 -8.48580 14.21505 7.95066 13.35458 3.70746 0.01400 -0.03638 -0.02742 -35.58237 22.64026 35.21955 4.16580 -1.48427 -1.49780 -71.64187 -86.22337 -46.59760 -39.76121 45.24463 -98.34172 1.98304 13.43660 -9.86909 14.23654 1.55012 1.41644 47.36285 -4.64448 71.19906 25.65566 31.57298 108.03984 -11.01110 17.97746 -0.52249 23.71103 -10.08436 6.65313 -1.50518 16.94881 15.41751 -12.27767 0.09986 -0.09793 -1.22259 9.35214 -12.01600 -10.69232 2.48763 -3.40396 14.03059 31.51761 5.92671 20.45571 -0.01008 0.00019 -29.00249 -21.91095 -3.27529 
-0.83589 93.73955 -64.44989 1.64007 -10.05123 14.61004 9.26695 12.57359 2.44177 0.01377 -0.02671 -0.02567 -34.99962 24.33021 35.53419 6.27404 -6.95241 -5.63960 -6.01686 -82.37028 19.01642 -38.24115 45.23315 -101.13544 0.36980 14.29723 -15.54378 19.34893 -2.87709 -0.65134 42.33581 -3.34239 67.06346 26.39116 30.95205 110.58932 -12.42951 24.81256 -4.41389 22.86416 -9.56730 5.90882 -2.12915 19.29983 14.98120 -18.51506 0.02959 -0.13534 0.18514 8.50928 -14.36213 -9.55359 3.42549 -4.03256 12.42171 32.07600 7.71997 22.50720 -0.02044 0.00319 -27.65153 -16.96656 -0.73130 
-1.61245 93.70910 -64.81609 1.88253 -11.54313 14.75368 11.08814 10.65223 -0.01921 0.04314 -0.05561 -0.08529 -34.46531 26.85066 36.40165 8.62209 -11.98829 -14.14447 20.76351 -75.26632 45.37473 -35.51766 45.68902 -105.26679 -2.35509 13.52774 -19.05959 28.66208 -8.02661 -1.95838 33.57018 -2.39769 61.65446 26.07978 30.98226 111.23937 -10.79220 30.43776 -12.04364 21.39872 -10.02840 5.63065 -1.65035 23.08248 12.35763 -24.63937 -0.07704 -0.15594 7.14794 5.77646 -12.87129 -7.94055 3.28517 -4.72888 9.05748 32.14729 11.18955 25.80934 -0.06731 -0.01705 -29.49817 -17.11861 -3.83939 
